<svg xmlns="http://www.w3.org/2000/svg" xmlns:xlink="http://www.w3.org/1999/xlink" width="2233.571" height="1218.084" viewBox="0 0 2233.571 1218.084">
  <defs>
    <clipPath id="clip-path">
      <circle id="Ellipse_12" data-name="Ellipse 12" cx="58.43" cy="58.43" r="58.43" fill="none"/>
    </clipPath>
  </defs>
  <g id="Group_38" data-name="Group 38" transform="translate(-156 162.684)">
 
    <g id="Group_6" data-name="Group 6" transform="matrix(0.921, 0.391, -0.391, 0.921, 1962.982, 303.828)" opacity="0.45">
      <path id="Path_2" data-name="Path 2" d="M384.738,447.938l49.623-85.949H335.115Z" transform="translate(12.961 6.789)" fill="#4ce8ca"/>
      <path id="Path_3" data-name="Path 3" d="M374.193,442.415l49.623-85.949H324.57Z" transform="translate(0 0)" fill="none" stroke="#17103c" stroke-linecap="round" stroke-linejoin="round" stroke-width="2"/>
    </g>
    <g id="Group_5" data-name="Group 5" transform="translate(1798.732 -137.952)" opacity="0.45">
      <path id="Path_1" data-name="Path 1" d="M90,.014c50.575.878,92.285,42.588,93.163,93.163s-39.41,90.862-89.984,89.984S.892,140.573.014,90,39.424-.864,90,.014Z" transform="translate(331.79 267.477) rotate(-45)" fill="#00bcd4"/>
      <g id="Group_4" data-name="Group 4" transform="translate(330.268 164.98)">
        <g id="Group_3" data-name="Group 3" clip-path="url(#clip-path)">
          <g id="Group_2" data-name="Group 2" transform="translate(-150.963 -25.457)">
            <line id="Line_1" data-name="Line 1" y1="167.775" x2="167.776" stroke-width="2" stroke="#17103c" stroke-linecap="round" stroke-linejoin="round" fill="none"/>
            <line id="Line_2" data-name="Line 2" y1="167.775" x2="167.775" transform="translate(9.654)" fill="none" stroke="#17103c" stroke-linecap="round" stroke-linejoin="round" stroke-width="2"/>
            <line id="Line_3" data-name="Line 3" y1="167.775" x2="167.776" transform="translate(19.309)" fill="none" stroke="#17103c" stroke-linecap="round" stroke-linejoin="round" stroke-width="2"/>
            <line id="Line_4" data-name="Line 4" y1="167.775" x2="167.775" transform="translate(28.963)" fill="none" stroke="#17103c" stroke-linecap="round" stroke-linejoin="round" stroke-width="2"/>
            <line id="Line_5" data-name="Line 5" y1="167.775" x2="167.775" transform="translate(38.617)" fill="none" stroke="#17103c" stroke-linecap="round" stroke-linejoin="round" stroke-width="2"/>
            <line id="Line_6" data-name="Line 6" y1="167.775" x2="167.775" transform="translate(48.272)" fill="none" stroke="#17103c" stroke-linecap="round" stroke-linejoin="round" stroke-width="2"/>
            <line id="Line_7" data-name="Line 7" y1="167.775" x2="167.775" transform="translate(57.926)" fill="none" stroke="#17103c" stroke-linecap="round" stroke-linejoin="round" stroke-width="2"/>
            <line id="Line_8" data-name="Line 8" y1="167.775" x2="167.775" transform="translate(67.58)" fill="none" stroke="#17103c" stroke-linecap="round" stroke-linejoin="round" stroke-width="2"/>
            <line id="Line_9" data-name="Line 9" y1="167.775" x2="167.775" transform="translate(77.234)" fill="none" stroke="#17103c" stroke-linecap="round" stroke-linejoin="round" stroke-width="2"/>
            <line id="Line_10" data-name="Line 10" y1="167.775" x2="167.775" transform="translate(86.889)" fill="none" stroke="#17103c" stroke-linecap="round" stroke-linejoin="round" stroke-width="2"/>
            <line id="Line_11" data-name="Line 11" y1="167.775" x2="167.775" transform="translate(96.543)" fill="none" stroke="#17103c" stroke-linecap="round" stroke-linejoin="round" stroke-width="2"/>
            <line id="Line_12" data-name="Line 12" y1="167.775" x2="167.775" transform="translate(106.197)" fill="none" stroke="#17103c" stroke-linecap="round" stroke-linejoin="round" stroke-width="2"/>
            <line id="Line_13" data-name="Line 13" y1="167.775" x2="167.775" transform="translate(115.852)" fill="none" stroke="#17103c" stroke-linecap="round" stroke-linejoin="round" stroke-width="2"/>
            <line id="Line_14" data-name="Line 14" y1="167.775" x2="167.775" transform="translate(125.506)" fill="none" stroke="#17103c" stroke-linecap="round" stroke-linejoin="round" stroke-width="2"/>
            <line id="Line_15" data-name="Line 15" y1="167.775" x2="167.775" transform="translate(135.16)" fill="none" stroke="#17103c" stroke-linecap="round" stroke-linejoin="round" stroke-width="2"/>
            <line id="Line_16" data-name="Line 16" y1="167.775" x2="167.775" transform="translate(144.814)" fill="none" stroke="#17103c" stroke-linecap="round" stroke-linejoin="round" stroke-width="2"/>
            <line id="Line_17" data-name="Line 17" y1="167.775" x2="167.776" transform="translate(154.469)" fill="none" stroke="#17103c" stroke-linecap="round" stroke-linejoin="round" stroke-width="2"/>
            <line id="Line_18" data-name="Line 18" y1="167.775" x2="167.776" transform="translate(164.123)" fill="none" stroke="#17103c" stroke-linecap="round" stroke-linejoin="round" stroke-width="2"/>
            <line id="Line_19" data-name="Line 19" y1="167.775" x2="167.775" transform="translate(173.777)" fill="none" stroke="#17103c" stroke-linecap="round" stroke-linejoin="round" stroke-width="2"/>
            <line id="Line_20" data-name="Line 20" y1="167.775" x2="167.775" transform="translate(183.432)" fill="none" stroke="#17103c" stroke-linecap="round" stroke-linejoin="round" stroke-width="2"/>
            <line id="Line_21" data-name="Line 21" y1="167.775" x2="167.775" transform="translate(193.086)" fill="none" stroke="#17103c" stroke-linecap="round" stroke-linejoin="round" stroke-width="2"/>
            <line id="Line_22" data-name="Line 22" y1="167.775" x2="167.775" transform="translate(202.74)" fill="none" stroke="#17103c" stroke-linecap="round" stroke-linejoin="round" stroke-width="2"/>
            <line id="Line_23" data-name="Line 23" y1="167.775" x2="167.776" transform="translate(212.395)" fill="none" stroke="#17103c" stroke-linecap="round" stroke-linejoin="round" stroke-width="2"/>
            <line id="Line_24" data-name="Line 24" y1="167.775" x2="167.775" transform="translate(222.049)" fill="none" stroke="#17103c" stroke-linecap="round" stroke-linejoin="round" stroke-width="2"/>
            <line id="Line_25" data-name="Line 25" y1="167.775" x2="167.775" transform="translate(231.703)" fill="none" stroke="#17103c" stroke-linecap="round" stroke-linejoin="round" stroke-width="2"/>
            <line id="Line_26" data-name="Line 26" y1="167.775" x2="167.775" transform="translate(241.357)" fill="none" stroke="#17103c" stroke-linecap="round" stroke-linejoin="round" stroke-width="2"/>
            <line id="Line_27" data-name="Line 27" y1="167.775" x2="167.775" transform="translate(251.012)" fill="none" stroke="#17103c" stroke-linecap="round" stroke-linejoin="round" stroke-width="2"/>
          </g>
        </g>
      </g>
    </g>
    <g id="Group_17" data-name="Group 17" transform="translate(1217.634 385.29)" opacity="0.45">
      <circle id="Ellipse_15" data-name="Ellipse 15" cx="60.813" cy="60.813" r="60.813" transform="matrix(0.16, -0.987, 0.987, 0.16, 128.471, 351.176)" fill="#00bcd4"/>
      <circle id="Ellipse_16" data-name="Ellipse 16" cx="58.362" cy="58.362" r="58.362" transform="translate(123.366 256.736)" stroke-width="2" stroke="#17103c" stroke-linecap="round" stroke-linejoin="round" fill="none"/>
    </g>
    <g id="Group_18" data-name="Group 18" transform="translate(1991.321 -85.654)" opacity="0.45">
      <path id="Path_12" data-name="Path 12" d="M40.382,418.005a4.171,4.171,0,1,1-4.172-4.172A4.17,4.17,0,0,1,40.382,418.005Z" transform="translate(0)" fill="none" stroke="#212121" stroke-miterlimit="10" stroke-width="1"/>
      <path id="Path_13" data-name="Path 13" d="M54.008,418.005a4.172,4.172,0,1,1-4.172-4.172A4.172,4.172,0,0,1,54.008,418.005Z" transform="translate(14.699)" fill="none" stroke="#212121" stroke-miterlimit="10" stroke-width="1"/>
      <path id="Path_14" data-name="Path 14" d="M67.633,418.005a4.172,4.172,0,1,1-4.172-4.172A4.172,4.172,0,0,1,67.633,418.005Z" transform="translate(29.399)" fill="none" stroke="#212121" stroke-miterlimit="10" stroke-width="1"/>
      <path id="Path_15" data-name="Path 15" d="M81.258,418.005a4.172,4.172,0,1,1-4.172-4.172A4.172,4.172,0,0,1,81.258,418.005Z" transform="translate(44.098)" fill="none" stroke="#212121" stroke-miterlimit="10" stroke-width="1"/>
      <path id="Path_16" data-name="Path 16" d="M94.881,418.005a4.171,4.171,0,1,1-4.17-4.172A4.17,4.17,0,0,1,94.881,418.005Z" transform="translate(58.798)" fill="none" stroke="#212121" stroke-miterlimit="10" stroke-width="1"/>
      <path id="Path_17" data-name="Path 17" d="M40.382,431.628a4.171,4.171,0,1,1-4.172-4.17A4.171,4.171,0,0,1,40.382,431.628Z" transform="translate(0 14.7)" fill="none" stroke="#212121" stroke-miterlimit="10" stroke-width="1"/>
      <path id="Path_18" data-name="Path 18" d="M54.008,431.628a4.172,4.172,0,1,1-4.172-4.17A4.172,4.172,0,0,1,54.008,431.628Z" transform="translate(14.699 14.7)" fill="none" stroke="#212121" stroke-miterlimit="10" stroke-width="1"/>
      <path id="Path_19" data-name="Path 19" d="M67.633,431.628a4.172,4.172,0,1,1-4.172-4.17A4.172,4.172,0,0,1,67.633,431.628Z" transform="translate(29.399 14.7)" fill="none" stroke="#212121" stroke-miterlimit="10" stroke-width="1"/>
      <path id="Path_20" data-name="Path 20" d="M81.258,431.628a4.172,4.172,0,1,1-4.172-4.17A4.172,4.172,0,0,1,81.258,431.628Z" transform="translate(44.098 14.7)" fill="none" stroke="#212121" stroke-miterlimit="10" stroke-width="1"/>
      <path id="Path_21" data-name="Path 21" d="M94.881,431.628a4.171,4.171,0,1,1-4.17-4.17A4.17,4.17,0,0,1,94.881,431.628Z" transform="translate(58.798 14.7)" fill="none" stroke="#212121" stroke-miterlimit="10" stroke-width="1"/>
      <path id="Path_22" data-name="Path 22" d="M40.382,445.254a4.171,4.171,0,1,1-4.172-4.172A4.171,4.171,0,0,1,40.382,445.254Z" transform="translate(0 29.399)" fill="none" stroke="#212121" stroke-miterlimit="10" stroke-width="1"/>
      <path id="Path_23" data-name="Path 23" d="M54.008,445.254a4.172,4.172,0,1,1-4.172-4.172A4.172,4.172,0,0,1,54.008,445.254Z" transform="translate(14.699 29.399)" fill="none" stroke="#212121" stroke-miterlimit="10" stroke-width="1"/>
      <path id="Path_24" data-name="Path 24" d="M67.633,445.254a4.172,4.172,0,1,1-4.172-4.172A4.172,4.172,0,0,1,67.633,445.254Z" transform="translate(29.399 29.399)" fill="none" stroke="#212121" stroke-miterlimit="10" stroke-width="1"/>
      <path id="Path_25" data-name="Path 25" d="M81.258,445.254a4.172,4.172,0,1,1-4.172-4.172A4.172,4.172,0,0,1,81.258,445.254Z" transform="translate(44.098 29.399)" fill="none" stroke="#212121" stroke-miterlimit="10" stroke-width="1"/>
      <path id="Path_26" data-name="Path 26" d="M94.881,445.254a4.171,4.171,0,1,1-4.17-4.172A4.17,4.17,0,0,1,94.881,445.254Z" transform="translate(58.798 29.399)" fill="none" stroke="#212121" stroke-miterlimit="10" stroke-width="1"/>
      <path id="Path_27" data-name="Path 27" d="M40.382,458.879a4.171,4.171,0,1,1-4.172-4.172A4.172,4.172,0,0,1,40.382,458.879Z" transform="translate(0 44.098)" fill="none" stroke="#212121" stroke-miterlimit="10" stroke-width="1"/>
      <path id="Path_28" data-name="Path 28" d="M54.008,458.879a4.172,4.172,0,1,1-4.172-4.172A4.174,4.174,0,0,1,54.008,458.879Z" transform="translate(14.699 44.098)" fill="none" stroke="#212121" stroke-miterlimit="10" stroke-width="1"/>
      <path id="Path_29" data-name="Path 29" d="M67.633,458.879a4.172,4.172,0,1,1-4.172-4.172A4.174,4.174,0,0,1,67.633,458.879Z" transform="translate(29.399 44.098)" fill="none" stroke="#212121" stroke-miterlimit="10" stroke-width="1"/>
      <path id="Path_30" data-name="Path 30" d="M81.258,458.879a4.172,4.172,0,1,1-4.172-4.172A4.174,4.174,0,0,1,81.258,458.879Z" transform="translate(44.098 44.098)" fill="none" stroke="#212121" stroke-miterlimit="10" stroke-width="1"/>
      <path id="Path_31" data-name="Path 31" d="M94.881,458.879a4.171,4.171,0,1,1-4.17-4.172A4.172,4.172,0,0,1,94.881,458.879Z" transform="translate(58.798 44.098)" fill="none" stroke="#212121" stroke-miterlimit="10" stroke-width="1"/>
      <path id="Path_32" data-name="Path 32" d="M40.382,472.5a4.171,4.171,0,1,1-4.172-4.172A4.172,4.172,0,0,1,40.382,472.5Z" transform="translate(0 58.798)" fill="none" stroke="#212121" stroke-miterlimit="10" stroke-width="1"/>
      <path id="Path_33" data-name="Path 33" d="M54.008,472.5a4.172,4.172,0,1,1-4.172-4.172A4.174,4.174,0,0,1,54.008,472.5Z" transform="translate(14.699 58.798)" fill="none" stroke="#212121" stroke-miterlimit="10" stroke-width="1"/>
      <path id="Path_34" data-name="Path 34" d="M67.633,472.5a4.172,4.172,0,1,1-4.172-4.172A4.174,4.174,0,0,1,67.633,472.5Z" transform="translate(29.399 58.798)" fill="none" stroke="#212121" stroke-miterlimit="10" stroke-width="1"/>
      <path id="Path_35" data-name="Path 35" d="M81.258,472.5a4.172,4.172,0,1,1-4.172-4.172A4.174,4.174,0,0,1,81.258,472.5Z" transform="translate(44.098 58.798)" fill="none" stroke="#212121" stroke-miterlimit="10" stroke-width="1"/>
      <path id="Path_36" data-name="Path 36" d="M94.881,472.5a4.171,4.171,0,1,1-4.17-4.172A4.172,4.172,0,0,1,94.881,472.5Z" transform="translate(58.798 58.798)" fill="none" stroke="#212121" stroke-miterlimit="10" stroke-width="1"/>
    </g>
    <g id="Group_24" data-name="Group 24" transform="translate(1248.922 63.772)" opacity="0.594">
      <g id="Group_21" data-name="Group 21" transform="translate(92.078 125.774)">
        <path id="Path_42" data-name="Path 42" d="M105.867,133.735l-13.789-7.961V141.7Z" transform="translate(-92.078 -125.774)" fill="none" stroke="#fff" stroke-linecap="round" stroke-linejoin="round" stroke-width="2"/>
        <path id="Path_43" data-name="Path 43" d="M121.511,133.735l-13.789-7.961V141.7Z" transform="translate(-78.308 -125.774)" fill="none" stroke="#fff" stroke-linecap="round" stroke-linejoin="round" stroke-width="2"/>
        <path id="Path_44" data-name="Path 44" d="M137.154,133.735l-13.789-7.961V141.7Z" transform="translate(-64.537 -125.774)" fill="none" stroke="#fff" stroke-linecap="round" stroke-linejoin="round" stroke-width="2"/>
      </g>
    </g>
    <path id="Path_37" data-name="Path 37" stroke="#00bcd4" d="M148.76,179.481c8.686-8.378,20.92,3.427,29.6-4.951s-3.547-20.191,5.139-28.574,20.924,3.423,29.615-4.963-3.543-20.2,5.148-28.582,20.924,3.423,29.615-4.963-3.543-20.2,5.152-28.586,20.924,3.423,29.611-4.959S279.1,53.7,287.8,45.312s20.937,3.41,29.641-4.988" fill="none" transform="translate(1350.24 107.855)" stroke-linecap="round" stroke-linejoin="round" stroke-width="2" opacity="0.7"/>
    <g id="Group_20" data-name="Group 20" transform="translate(1588.139 930.62)" opacity="0.606">
      <circle id="Ellipse_17-2" data-name="Ellipse 17" cx="120.761" cy="120.761" r="120.761" transform="translate(191.959 -158.523)" stroke-dasharray="0 4" stroke="#fff" stroke-linecap="round" stroke-linejoin="round" stroke-width="0.75" fill="none"/>
      <circle id="Ellipse_18-2" data-name="Ellipse 18" cx="114.451" cy="114.451" r="114.451" transform="translate(150.861 -37.761) rotate(-45)" stroke-dasharray="0 4" stroke="#fff" stroke-linecap="round" stroke-linejoin="round" stroke-width="0.967" fill="none"/>
      <circle id="Ellipse_19-2" data-name="Ellipse 19" cx="108.142" cy="108.142" r="108.142" transform="translate(159.784 -37.761) rotate(-45)" stroke-dasharray="0 4" stroke="#fff" stroke-linecap="round" stroke-linejoin="round" stroke-width="1.183" fill="none"/>
      <circle id="Ellipse_20-2" data-name="Ellipse 20" cx="101.832" cy="101.832" r="101.832" transform="translate(210.888 -139.593)" stroke-dasharray="0 4" stroke="#fff" stroke-linecap="round" stroke-linejoin="round" stroke-width="1.4" fill="none"/>
      <circle id="Ellipse_21-2" data-name="Ellipse 21" cx="95.522" cy="95.522" r="95.522" transform="translate(177.631 -37.761) rotate(-45)" stroke-dasharray="0 4" stroke="#fff" stroke-linecap="round" stroke-linejoin="round" stroke-width="1.617" fill="none"/>
      <circle id="Ellipse_22-2" data-name="Ellipse 22" cx="89.212" cy="89.212" r="89.212" transform="translate(186.554 -37.761) rotate(-45)" stroke-dasharray="0 4" stroke="#fff" stroke-linecap="round" stroke-linejoin="round" stroke-width="1.833" fill="none"/>
      <circle id="Ellipse_23-2" data-name="Ellipse 23" cx="82.902" cy="82.902" r="82.902" transform="translate(229.817 -120.664)" stroke-dasharray="0 4" stroke="#fff" stroke-linecap="round" stroke-linejoin="round" stroke-width="2.05" fill="none"/>
      <circle id="Ellipse_24-2" data-name="Ellipse 24" cx="76.593" cy="76.593" r="76.593" transform="translate(204.401 -37.761) rotate(-45)" stroke-dasharray="0 4" stroke="#fff" stroke-linecap="round" stroke-linejoin="round" stroke-width="2.267" fill="none"/>
      <circle id="Ellipse_25-2" data-name="Ellipse 25" cx="70.283" cy="70.283" r="70.283" transform="translate(213.325 -37.761) rotate(-45)" stroke-dasharray="0 4" stroke="#fff" stroke-linecap="round" stroke-linejoin="round" stroke-width="2.483" fill="none"/>
      <circle id="Ellipse_26-2" data-name="Ellipse 26" cx="63.973" cy="63.973" r="63.973" transform="matrix(1, -0.004, 0.004, 1, 248.469, -101.456)" stroke-dasharray="0 4" stroke="#fff" stroke-linecap="round" stroke-linejoin="round" stroke-width="2.7" fill="none"/>
      <circle id="Ellipse_27-2" data-name="Ellipse 27" cx="57.663" cy="57.663" r="57.663" transform="translate(231.171 -37.761) rotate(-45)" stroke-dasharray="0 4" stroke="#fff" stroke-linecap="round" stroke-linejoin="round" stroke-width="2.917" fill="none"/>
      <circle id="Ellipse_28-2" data-name="Ellipse 28" cx="51.354" cy="51.354" r="51.354" transform="translate(240.095 -37.761) rotate(-45)" stroke-dasharray="0 4" stroke="#fff" stroke-linecap="round" stroke-linejoin="round" stroke-width="3.133" fill="none"/>
      <circle id="Ellipse_29-2" data-name="Ellipse 29" cx="45.044" cy="45.044" r="45.044" transform="translate(258.271 -70.826) rotate(-13.731)" stroke-dasharray="0 4" stroke="#fff" stroke-linecap="round" stroke-linejoin="round" stroke-width="3.35" fill="none"/>
      <circle id="Ellipse_30-2" data-name="Ellipse 30" cx="38.734" cy="38.734" r="38.734" transform="translate(257.941 -37.761) rotate(-45)" stroke-dasharray="0 4" stroke="#fff" stroke-linecap="round" stroke-linejoin="round" stroke-width="3.567" fill="none"/>
      <circle id="Ellipse_31-2" data-name="Ellipse 31" cx="32.424" cy="32.424" r="32.424" transform="translate(274.489 -63.081) rotate(-11.484)" stroke-dasharray="0 4" stroke="#fff" stroke-linecap="round" stroke-linejoin="round" stroke-width="3.783" fill="none"/>
      <circle id="Ellipse_32-2" data-name="Ellipse 32" cx="26.115" cy="26.115" r="26.115" transform="matrix(0.478, -0.878, 0.878, 0.478, 277.295, -27.319)" stroke-dasharray="0 4" stroke="#fff" stroke-linecap="round" stroke-linejoin="round" stroke-width="4" fill="none"/>
    </g>
    <g id="Group_22" data-name="Group 22" transform="translate(1622.922 286.772)" opacity="0.594">
      <g id="Group_21-2" data-name="Group 21" transform="translate(92.078 125.774)">
        <path id="Path_42-2" data-name="Path 42" d="M105.867,133.735l-13.789-7.961V141.7Z" transform="translate(-92.078 -125.774)" fill="none" stroke="#fff" stroke-linecap="round" stroke-linejoin="round" stroke-width="2"/>
        <path id="Path_43-2" data-name="Path 43" d="M121.511,133.735l-13.789-7.961V141.7Z" transform="translate(-78.308 -125.774)" fill="none" stroke="#fff" stroke-linecap="round" stroke-linejoin="round" stroke-width="2"/>
        <path id="Path_44-2" data-name="Path 44" d="M137.154,133.735l-13.789-7.961V141.7Z" transform="translate(-64.537 -125.774)" fill="none" stroke="#fff" stroke-linecap="round" stroke-linejoin="round" stroke-width="2"/>
      </g>
    </g>
    <g id="Group_23" data-name="Group 23" transform="translate(2036.922 545.772)" opacity="0.594">
      <g id="Group_21-3" data-name="Group 21" transform="translate(92.078 125.774)">
        <path id="Path_42-3" data-name="Path 42" d="M105.867,133.735l-13.789-7.961V141.7Z" transform="translate(-92.078 -125.774)" fill="none" stroke="#00bcd4" stroke-linecap="round" stroke-linejoin="round" stroke-width="2"/>
        <path id="Path_43-3" data-name="Path 43" d="M121.511,133.735l-13.789-7.961V141.7Z" transform="translate(-78.308 -125.774)" fill="none" stroke="#00bcd4" stroke-linecap="round" stroke-linejoin="round" stroke-width="2"/>
        <path id="Path_44-3" data-name="Path 44" d="M137.154,133.735l-13.789-7.961V141.7Z" transform="translate(-64.537 -125.774)" fill="none" stroke="#00bcd4" stroke-linecap="round" stroke-linejoin="round" stroke-width="2"/>
      </g>
    </g>
  </g>
</svg>
